<svg width="91" height="84" viewBox="0 0 91 84" fill="none" xmlns="http://www.w3.org/2000/svg">
<g clip-path="url(#clip0_135_3366)">
<path d="M67.5369 46.9214H73.3221V45.543H68.9475V42.0328H73.3221V40.6544H68.9475V38.1097H73.3221V36.7145H67.5369V46.9158V46.9214ZM60.0784 43.8967L56.806 36.2904L53.9506 46.9214H55.3383L57.0916 40.3698L60.0784 47.312L63.0538 40.4256L64.7842 46.9214H66.1834L63.3279 36.2904L60.0841 43.8967H60.0784ZM50.1071 44.6278C49.2904 45.4146 48.3196 45.8053 47.1945 45.8053C45.9724 45.8053 44.9387 45.4202 44.0935 44.6501C43.2482 43.88 42.8256 42.9369 42.8256 41.8207C42.8256 40.7046 43.2368 39.7783 44.0592 38.997C44.8816 38.2101 45.8696 37.8195 47.0232 37.8195C48.2339 37.8195 49.2562 38.2045 50.09 38.9746C50.918 39.7448 51.3349 40.6935 51.3349 41.8207C51.3349 42.948 50.9238 43.8409 50.1071 44.6278ZM43.0141 45.6602C44.1334 46.7316 45.4926 47.2674 47.086 47.2674C48.6793 47.2674 50.0671 46.7372 51.1807 45.6713C52.2944 44.6054 52.8483 43.3052 52.8483 41.7594C52.8483 40.3028 52.283 39.0472 51.1579 37.9869C50.0328 36.9266 48.6908 36.3964 47.1317 36.3964C45.5726 36.3964 44.1677 36.921 43.0312 37.9702C41.8947 39.0193 41.3236 40.2805 41.3236 41.7538C41.3236 43.227 41.8833 44.5775 43.0027 45.649M33.7909 38.0818C34.8588 38.0818 35.7041 38.1934 36.338 38.411C36.9719 38.6287 37.5087 39.0584 37.9656 39.6945C38.4168 40.3307 38.6452 41.0395 38.6452 41.8263C38.6452 42.4513 38.5024 43.0261 38.2169 43.5451C37.9313 44.0641 37.5487 44.4827 37.069 44.8008C36.5893 45.1133 36.081 45.3198 35.5442 45.4146C35.0073 45.5095 34.2078 45.5541 33.1513 45.5541H33.0656V38.0873H33.7852L33.7909 38.0818ZM31.6436 46.9214H34.1907C36.121 46.9214 37.5887 46.408 38.5995 45.3756C39.6103 44.3432 40.1129 43.1601 40.1129 41.8207C40.1129 40.4814 39.6275 39.3095 38.6452 38.2715C37.6686 37.2335 36.1781 36.7201 34.1678 36.7201H31.6379V46.9214H31.6436ZM20.353 46.9214H21.7808V39.6722L29.502 47.3957V36.7201H28.0742V44.0641L20.353 36.3071V46.9214ZM16.7266 46.9214H18.1372V36.7201H16.7266V46.9214Z" fill="black"/>
<path d="M58.8457 0.27903H31.2047L8.84061 16.1557L0.302734 41.8431L8.84061 67.536L31.2047 83.4128H58.8457L81.2098 67.536L89.7534 41.8431L81.2098 16.1557L58.8457 0.27903Z" stroke="black" stroke-width="0.558057"/>
<path d="M45.0255 0.457619L20.1314 8.3597L4.74609 29.0525V54.6338L20.1314 75.3321L45.0255 83.2342L69.9252 75.3321L85.3105 54.6338V29.0525L69.9252 8.3597L45.0255 0.457619Z" stroke="black" stroke-width="0.558057"/>
<path d="M57.44 4.57604H32.6145L12.529 18.8121L4.85352 41.8431L12.529 64.8797L32.6145 79.1157H57.44L77.5254 64.8797L85.1952 41.8431L77.5254 18.8121L57.44 4.57604Z" stroke="black" stroke-width="0.558057"/>
</g>
<defs>
<clipPath id="clip0_135_3366">
<rect width="90.056" height="83.6918" fill="white"/>
</clipPath>
</defs>
</svg>
